HIERARCHY
ROOT Hips
{
  OFFSET 36.5706 95.6497 -227.79
  CHANNELS 6 Xposition Yposition Zposition Zrotation Xrotation Yrotation
  JOINT ToSpine
  {
    OFFSET -2.69724 7.43032 -0.144315
    CHANNELS 3 Zrotation Xrotation Yrotation
    JOINT Spine
    {
      OFFSET -0.0310711 10.7595 1.96963
      CHANNELS 3 Zrotation Xrotation Yrotation
      JOINT Spine1
      {
        OFFSET 13.1342 3.43533 0.764692
        CHANNELS 3 Zrotation Xrotation Yrotation
        JOINT Neck
        {
          OFFSET 29.8703 7.82586 -0.130764
          CHANNELS 3 Zrotation Xrotation Yrotation
          JOINT Head
          {
            OFFSET 9.52751 0.295786 -0.907742
            CHANNELS 3 Zrotation Xrotation Yrotation
            End Site
            {
              OFFSET 16.4037 0.713936 2.7358
            }
          }
        }
        JOINT LeftShoulder
        {
          OFFSET 27.5574 4.95586 2.47156
          CHANNELS 3 Zrotation Xrotation Yrotation
          JOINT LeftArm
          {
            OFFSET 1.20734 -0.998971 20.1238
            CHANNELS 3 Zrotation Xrotation Yrotation
            JOINT LeftForeArm
            {
              OFFSET 26.8049 -0.0536703 -0.155908
              CHANNELS 3 Zrotation Xrotation Yrotation
              JOINT LeftHand
              {
                OFFSET 26.6817 0 0.320147
                CHANNELS 3 Zrotation Xrotation Yrotation
                End Site
                {
                  OFFSET 18.6119 0 0.382219
                }
              }
            }
          }
        }
        JOINT RightShoulder
        {
          OFFSET 27.5927 4.71444 -2.65209
          CHANNELS 3 Zrotation Xrotation Yrotation
          JOINT RightArm
          {
            OFFSET 2.83739 -1.17114 -18.7564
            CHANNELS 3 Zrotation Xrotation Yrotation
            JOINT RightForeArm
            {
              OFFSET 28.839 -0.0548439 1.22491
              CHANNELS 3 Zrotation Xrotation Yrotation
              JOINT RightHand
              {
                OFFSET 26.5114 0 -0.101894
                CHANNELS 3 Zrotation Xrotation Yrotation
                End Site
                {
                  OFFSET 18.2168 0 0
                }
              }
            }
          }
        }
      }
    }
  }
  JOINT LeftUpLeg
  {
    OFFSET -4.76168 -1.9167 -10.2353
    CHANNELS 3 Zrotation Xrotation Yrotation
    JOINT LeftLeg
    {
      OFFSET 2.55951 -42.0585 -8.02213
      CHANNELS 3 Zrotation Xrotation Yrotation
      JOINT LeftFoot
      {
        OFFSET 3.16357 -42.5282 -3.95426
        CHANNELS 3 Zrotation Xrotation Yrotation
        JOINT LeftToeBase
        {
          OFFSET 0.346054 -6.02161 12.8035
          CHANNELS 3 Zrotation Xrotation Yrotation
          End Site
          {
            OFFSET 0.134235 -1.35082 5.13018
          }
        }
      }
    }
  }
  JOINT RightUpLeg
  {
    OFFSET -4.94151 -1.41743 10.6446
    CHANNELS 3 Zrotation Xrotation Yrotation
    JOINT RightLeg
    {
      OFFSET -2.56294 -42.0364 -7.94377
      CHANNELS 3 Zrotation Xrotation Yrotation
      JOINT RightFoot
      {
        OFFSET -3.0952 -42.555 -4.02241
        CHANNELS 3 Zrotation Xrotation Yrotation
        JOINT RightToeBase
        {
          OFFSET -0.0828122 -6.13587 12.8035
          CHANNELS 3 Zrotation Xrotation Yrotation
          End Site
          {
            OFFSET -0.131328 -1.35082 5.13018
          }
        }
      }
    }
  }
}
MOTION
Frames:	11
Frame Time:	0.0333333
40.7847 98.2926 -300.636 -5.21086 -68.295 -96.1249 -70.1915 0 88.8779 62.2148 68.7951 27.1682 8.24911 20.7514 -0.78495 -159.307 20.3623 174.692 -156.255 59.3191 -178.42 0.108769 -14.2961 -33.4649 -73.8544 47.3324 -85.3208 11.122 19.1298 -30.5689 0.420957 0.000575435 0.35866 -1.85845 5.84881 46.2596 -69.747 -36.635 89.551 7.67279 -14.5261 28.4047 0.58676 0.000331166 0.0646654 -51.3246 -4.20644 97.9262 -1.19451 24.7818 -14.6527 5.32004 -11.0801 -1.13608 -2.78039 1.35241 9.87267 -54.1089 3.21588 82.1185 1.87984 18.3929 11.6385 -10.7495 -6.33768 1.44124 1.59187 -3.46818 -8.96568 
40.85 98.2273 -300.473 -4.59222 -68.1246 -95.6009 -70.1915 0 88.8779 61.6504 68.8531 27.157 7.68951 20.7054 0.106493 -158.243 20.4281 175.172 -156.698 59.5342 -176.522 0.0280727 -14.5803 -33.8327 -73.5705 47.2343 -85.1955 10.9154 18.8842 -30.4214 0.420957 0.000575435 0.35866 -1.88896 5.92383 46.3291 -69.9782 -36.5549 88.4417 7.59227 -13.9673 29.077 0.58676 0.000331166 0.0646654 -51.088 -4.39792 97.7629 -1.23384 25.0261 -14.3097 4.99181 -11.5138 -1.14107 -2.87785 1.3642 10.266 -53.792 3.05017 82.1322 1.7601 18.7634 10.2356 -11.7403 -6.52273 1.51092 1.23412 -4.17588 -5.82413 
40.9729 98.1438 -300.163 -3.4892 -68.2404 -94.3182 -70.1915 0 88.8779 61.4277 68.5836 27.0233 8.11103 20.249 0.926063 -159.272 20.4335 176.793 -158.782 59.78 -174.6 0.0377296 -14.4811 -34.1687 -73.369 47.3208 -85.5751 10.697 18.4764 -30.426 0.420957 0.000575435 0.35866 -1.93581 6.34894 44.9472 -69.7487 -37.6058 89.0651 6.94106 -12.8778 28.8259 0.58676 0.000331166 0.0646654 -51.0402 -4.46546 97.5157 -1.25926 25.6731 -14.7542 5.0888 -11.9793 -1.16018 -2.89063 1.05692 11.0943 -53.8785 3.08564 82.0681 1.6593 19.2324 10.0126 -12.0381 -6.81109 1.5253 1.39785 -4.79581 -6.84091 
41.1565 98.0995 -299.814 -4.2347 -68.219 -94.717 -70.1915 0 88.8779 62.8144 68.8371 26.6098 7.99191 20.5195 0.144842 -159.338 20.4568 176.199 -158.638 59.788 -174.721 0.0452891 -14.4703 -34.0451 -73.6042 47.4056 -85.3582 10.8217 18.5255 -30.6381 0.420957 0.000575435 0.35866 -1.89141 6.15112 45.2272 -70.6298 -37.4483 88.4282 7.61485 -14.0141 29.0509 0.58676 0.000331166 0.0646654 -50.8183 -4.3366 97.1324 -1.06787 26.6539 -14.4932 5.25585 -12.9443 -1.19727 -3.03175 1.18213 11.3865 -54.0279 3.43184 82.2034 1.56694 19.4144 10.2659 -11.1824 -7.17757 1.45785 1.48658 -4.6237 -7.65968 
41.3526 97.9672 -299.434 -4.96166 -68.0026 -95.1033 -70.1915 0 88.8779 63.1206 69.0717 26.9199 7.76378 20.7489 0.162422 -159.211 20.5443 176.442 -158.987 59.9167 -174.293 0.000374088 -14.6184 -34.2837 -73.847 47.4618 -85.3393 10.5071 18.3579 -30.1793 0.420957 0.000575435 0.35866 -1.86513 6.17514 44.6987 -72.9299 -38.123 86.4163 8.74657 -15.4984 30.0292 0.58676 0.000331166 0.0646654 -50.3494 -4.27915 96.5703 -0.951319 27.7349 -14.1403 5.33699 -13.6686 -1.22273 -2.77126 0.189221 12.821 -53.674 4.10146 82.7946 1.00661 20.1402 10.0821 -10.7191 -7.72064 1.41704 1.59451 -4.58156 -8.55582 
41.5797 97.7732 -298.997 -4.24648 -67.8977 -94.2155 -70.1915 0 88.8779 63.7059 68.9565 26.4102 7.59477 20.5158 0.358508 -159.912 20.5857 176.986 -159.39 59.9784 -174.577 0.0364535 -14.4282 -34.514 -73.793 47.4484 -85.1952 10.8288 18.5286 -30.6325 0.420957 0.000575435 0.35866 -1.86198 6.25834 44.25 -73.4103 -38.5434 86.0715 9.02282 -15.8813 30.2093 0.58676 0.000331166 0.0646654 -49.9371 -4.65363 95.6578 -0.933589 28.8213 -13.5096 5.38824 -14.6649 -1.25581 -2.82184 0.0325079 13.4709 -53.2603 4.30272 83.0838 0.59532 21.247 9.38896 -11.1657 -8.31174 1.43484 1.65895 -5.89834 -8.57027 
41.7444 97.5372 -298.518 -4.36463 -67.8436 -94.2468 -70.1915 0 88.8779 64.1887 69.2247 25.9754 7.34824 20.7402 0.166943 -159.098 20.5799 175.651 -157.493 59.8073 -175.492 0.0336053 -14.4833 -34.2576 -73.0048 47.6874 -85.8747 10.7477 18.4471 -30.5556 0.420957 0.000575435 0.35866 -1.86573 6.15336 44.8163 -72.3897 -38.0023 86.5606 8.52009 -15.0934 30.0065 0.58676 0.000331166 0.0646654 -49.5985 -4.98611 94.6615 -0.964455 30.0673 -12.5164 5.39182 -15.9039 -1.29835 -3.0199 0.653714 12.7001 -52.4679 4.68424 83.8184 0.0518846 23.345 9.04243 -10.5843 -9.68054 1.38104 1.77134 -6.01926 -9.57476 
41.8467 97.1929 -297.973 -4.74191 -67.797 -94.5877 -70.1915 0 88.8779 63.861 69.3869 26.0322 7.43961 20.8151 0.414338 -159.133 20.6104 175.902 -158.12 59.9042 -174.927 0.0209401 -14.5232 -34.3355 -73.047 47.7203 -85.8277 11.2713 19.1418 -30.8786 0.420957 0.000575435 0.35866 -1.87744 6.17104 44.9117 -72.6792 -37.8234 86.2248 8.88636 -15.5381 30.3706 0.58676 0.000331166 0.0646654 -49.0054 -5.19565 93.7943 -1.31658 32.0063 -11.1813 5.14531 -17.4068 -1.35297 -2.67339 0.482168 11.5999 -51.1254 5.63243 86.2407 -0.230753 26.5925 7.13829 -9.86015 -11.0148 1.33717 1.99707 -7.06199 -11.3091 
42.0211 96.7459 -297.466 -4.07745 -67.8042 -94.3155 -70.1915 0 88.8779 64.5351 69.5549 24.2332 6.99388 20.6171 1.09083 -158.871 20.6256 175.898 -157.888 59.9228 -174.642 0.0321156 -14.4793 -34.319 -72.3849 47.7178 -85.9758 11.3959 18.6043 -31.8723 0.420957 0.000575435 0.35866 -1.89923 6.20856 45.0639 -73.1517 -37.6463 85.7206 8.78565 -15.2184 30.5826 0.58676 0.000331166 0.0646654 -48.5678 -6.11727 92.5358 -1.64047 33.5082 -9.2084 5.49545 -18.7655 -1.3902 -2.82945 0.996466 10.9764 -48.7886 5.73902 89.5818 0.919911 31.8612 5.08318 -8.39484 -12.1205 1.29525 2.67146 -9.70692 -18.8079 
42.2989 96.3797 -296.927 -4.11294 -67.7921 -94.9835 -70.1915 0 88.8779 67.03 69.9429 21.3592 6.28576 20.7553 0.517414 -158.88 20.4555 175.404 -157.539 59.703 -175.105 0.0782333 -14.3409 -33.9781 -69.8118 47.3195 -87.5344 11.3728 17.6353 -33.172 0.420957 0.000575435 0.35866 -1.87893 6.12501 45.1631 -74.8533 -37.8368 84.7048 9.62072 -16.2713 31.2404 0.58676 0.000331166 0.0646654 -48.4721 -7.08231 92.4683 -1.68495 34.3435 -8.66905 5.47775 -19.6235 -1.41881 -3.27737 1.8053 10.9109 -45.4787 5.07238 90.7451 2.19454 38.7513 4.73248 -6.15921 -12.7041 1.25305 2.86517 -12.5023 -26.1192 
42.5426 95.9763 -296.374 -4.94503 -67.4108 -96.3879 -70.1915 0 88.8779 67.927 70.0978 20.2222 6.0864 20.9034 -0.00714511 -158.675 20.2358 175.167 -156.525 59.4105 -175.386 0.0869975 -14.3186 -33.8989 -68.1779 46.9377 -88.6937 11.8662 17.5812 -34.4053 0.420957 0.000575435 0.35866 -1.92163 6.09237 45.9881 -74.8284 -36.9389 84.7594 9.66669 -16.1578 31.5346 0.58676 0.000331166 0.0646654 -47.9414 -7.93744 92.0106 -2.00093 35.4851 -8.06523 5.8119 -19.9385 -1.41308 -3.41729 2.21236 10.533 -41.5304 4.69143 91.038 2.31236 45.1553 1.75685 -6.39538 -12.3345 1.25126 2.36444 -16.269 -19.8809 
